<svg width="45" height="38" viewBox="0 0 45 38" fill="none" xmlns="http://www.w3.org/2000/svg">
<path fill-rule="evenodd" clip-rule="evenodd" d="M4.15796 18.5477C3.10986 16.9553 2.5 15.0488 2.5 12.9999C2.5 7.41982 7.02358 2.89624 12.6037 2.89624C16.924 2.89624 20.6109 5.6078 22.0556 9.42188C23.5002 5.6078 27.1871 2.89624 31.5074 2.89624C37.0875 2.89624 41.6111 7.41982 41.6111 12.9999C41.6111 15.0487 41.0013 16.955 39.9534 18.5473C36.1482 24.9894 26.1101 32.7765 22.0556 35C18.0011 32.7765 7.96328 24.9897 4.15796 18.5477Z" fill="white" fill-opacity="0.3"/>
<path d="M4.15796 18.5477L6.31047 17.2762C6.28989 17.2413 6.26847 17.207 6.24622 17.1732L4.15796 18.5477ZM22.0556 9.42188L19.7176 10.3074C20.0857 11.2791 21.0165 11.9219 22.0556 11.9219C23.0947 11.9219 24.0254 11.2791 24.3935 10.3074L22.0556 9.42188ZM39.9534 18.5473L37.8651 17.1729C37.8428 17.2067 37.8214 17.241 37.8008 17.2759L39.9534 18.5473ZM22.0556 35L20.8535 37.192C21.6023 37.6026 22.5089 37.6026 23.2576 37.192L22.0556 35ZM0 12.9999C0 15.5522 0.761257 17.9342 2.06971 19.9221L6.24622 17.1732C5.45847 15.9764 5 14.5455 5 12.9999H0ZM12.6037 0.39624C5.64287 0.39624 0 6.03911 0 12.9999H5C5 8.80053 8.40429 5.39624 12.6037 5.39624V0.39624ZM24.3935 8.53637C22.5929 3.78257 17.9969 0.39624 12.6037 0.39624V5.39624C15.8511 5.39624 18.6289 7.43302 19.7176 10.3074L24.3935 8.53637ZM31.5074 0.39624C26.1142 0.39624 21.5182 3.78257 19.7176 8.53637L24.3935 10.3074C25.4822 7.43302 28.2601 5.39624 31.5074 5.39624V0.39624ZM44.1111 12.9999C44.1111 6.03911 38.4682 0.39624 31.5074 0.39624V5.39624C35.7068 5.39624 39.1111 8.80053 39.1111 12.9999H44.1111ZM42.0417 19.9217C43.35 17.9339 44.1111 15.552 44.1111 12.9999H39.1111C39.1111 14.5454 38.6527 15.9762 37.8651 17.1729L42.0417 19.9217ZM23.2576 37.192C25.4966 35.9642 29.1689 33.3394 32.7364 30.2439C36.2857 27.1642 39.994 23.3942 42.1059 19.8188L37.8008 17.2759C36.1076 20.1425 32.8943 23.4871 29.4596 26.4674C26.0432 29.4317 22.6691 31.8123 20.8535 32.8079L23.2576 37.192ZM23.2576 32.8079C21.4421 31.8123 18.0681 29.4318 14.6517 26.4675C11.2171 23.4873 8.0038 20.1428 6.31047 17.2762L2.00545 19.8192C4.11745 23.3946 7.82567 27.1644 11.3749 30.2441C14.9424 33.3395 18.6145 35.9642 20.8535 37.192L23.2576 32.8079Z" fill="white"/>
</svg>
